<?xml version="1.0" encoding="utf-8"?>
<!-- Generator: Adobe Illustrator 22.1.0, SVG Export Plug-In . SVG Version: 6.00 Build 0)  -->
<svg version="1.1" id="Layer_1" xmlns="http://www.w3.org/2000/svg" xmlns:xlink="http://www.w3.org/1999/xlink" x="0px" y="0px"
	 viewBox="0 0 19.6 20.8" style="enable-background:new 0 0 19.6 20.8;" xml:space="preserve">
<style type="text/css">
	.st0{fill:#E4BD53;}
	.st1{fill:#E6E6E6;}
</style>
<path class="st0" d="M11.5,4.4C11.5,4.4,11.5,4.3,11.5,4.4C11.5,4.3,11.5,4.3,11.5,4.4l-1.1-2.5c-0.1-0.3-0.1-0.5,0.1-0.8
	c0.1-0.3,0-0.5-0.7-0.6C9.1,0.5,9,0.8,9.1,1c0.1,0.3,0.2,0.7,0,1l-1,2.4"/>
<polygon class="st1" points="4.4,10.9 4.3,9.6 5.9,7.5 13.8,7.3 15.1,9.6 15.4,10.5 14.7,11 "/>
<path class="st1" d="M37,12c-2.1-0.2-3.9-0.3-5.9-0.3s-3.7,0.1-5.8,0.3c-0.4,0.1-0.7,0.4-0.7,0.6c0,0.2,0.1,4.8,0.1,5.9
	c0.2-0.1,0.5-0.1,0.8-0.1l0.1-4.6c0-0.3,0.3-0.5,0.7-0.5c0.3,0,0.6,0.2,0.6,0.4v4.5c0.5,0,1-0.1,1.6-0.1l-1-1.5
	c-0.2-0.2,0-0.5,0.3-0.5h1.1v-2.5c0-0.3,0.3-0.5,0.7-0.5c0.4,0,0.7,0.1,0.7,0.3l-0.1,2.5c0.2-0.1,0.4-0.2,0.4-0.2l0.3-0.8
	c0.1-0.1,0.4-0.2,0.5,0l0.3,0.8c0.1,0.1,0.4,0.2,0.5,0.2v-2.5c0-0.3,0.3-0.4,0.7-0.4c0.3,0,0.7,0.2,0.7,0.5V16h1.1
	c0.3,0,0.4,0.3,0.3,0.5L34,18c0.6,0,1.1,0.1,1.6,0.1l0.1-4.5c0-0.3,0.3-0.4,0.6-0.4c0.4,0,0.7,0.2,0.7,0.5l-0.1,4.6
	c0.3,0,0.6,0.1,0.9,0.1c0-0.9,0.1-5.7,0.1-5.9C37.7,12.3,37.4,12,37,12z"/>
<path class="st1" d="M9.8,5c-3.6,0-5.9,3.8-6,6.8c1.1-0.2,6.8-0.8,12,0C15.8,8.8,13.4,5,9.8,5z M5.4,10.5C5.3,10.8,5,11,4.8,10.9
	c-0.3-0.1-0.4-0.4-0.3-0.7c0.1-0.3,0.4-0.5,0.6-0.4C5.4,9.9,5.5,10.2,5.4,10.5z M6.4,8.2C6.3,8.4,6.1,8.5,5.9,8.5
	C5.7,8.4,5.6,8.2,5.7,7.9c0-0.2,0.3-0.3,0.5-0.3C6.4,7.7,6.5,7.9,6.4,8.2z M8.4,10.8c-0.4,0-0.7-0.3-0.7-0.7c0-0.4,0.3-0.7,0.7-0.7
	s0.7,0.3,0.7,0.7C9.1,10.5,8.8,10.8,8.4,10.8z M8.8,8.4c-0.3,0-0.5-0.2-0.5-0.5c0-0.3,0.2-0.5,0.5-0.5s0.5,0.2,0.5,0.5
	C9.3,8.2,9.1,8.4,8.8,8.4z M11.1,7.5c0.3,0,0.5,0.2,0.5,0.5c0,0.3-0.2,0.5-0.5,0.5s-0.5-0.2-0.5-0.5C10.6,7.6,10.8,7.5,11.1,7.5z
	 M11.4,10.8c-0.4,0-0.7-0.3-0.7-0.7c0-0.4,0.3-0.7,0.7-0.7s0.7,0.3,0.7,0.7C12.1,10.5,11.8,10.8,11.4,10.8z M13.8,8.5
	c-0.2,0.1-0.4-0.1-0.5-0.3s0-0.5,0.2-0.5C13.7,7.6,13.9,7.8,14,8C14.1,8.2,14,8.4,13.8,8.5z M14.8,10.9c-0.3,0.1-0.6-0.1-0.6-0.4
	s0.1-0.6,0.3-0.7c0.3-0.1,0.6,0.1,0.6,0.4S15,10.8,14.8,10.9z"/>
<path class="st0" d="M31.8,21.6l0.4,1c0.1,0,0.6,0.3,0.7,0.3H36c0.4,0,0.6,0.4,0.3,0.7l-1.4,2c-0.1,0.1-0.3,0.1-0.4,0.1h-6.1
	c-0.1,0-0.3-0.1-0.4-0.1l-1.4-2c-0.1-0.3,0-0.6,0.4-0.7h3c0.1,0,0.7-0.3,0.9-0.4l0.4-1C31.2,21.4,31.7,21.4,31.8,21.6z"/>
<path class="st1" d="M15.6,12.7c-2.1-0.2-3.9-0.4-5.9-0.4S6,12.5,3.9,12.7c-0.4,0.1-0.7,0.5-0.7,0.7c0,0.2,0.1,5.7,0.1,7
	c0.1-0.1,0.7-0.1,1.3-0.2v-4c0-0.5,0.4-1,0.8-1h0.3c0.4,0,0.8,0.4,0.8,1V20c0.2,0,0.4,0,0.5,0h1.6v-0.6c0-0.1,0-0.1,0-0.2v-3.6
	c0-0.4,0.4-0.8,0.8-0.8h0.3c0.4,0,0.8,0.4,0.8,0.8v0.4c0,0.1,0,0.2,0,0.3V20h1.9c0.1,0,0.2,0,0.3,0v-3.8c0-0.5,0.4-1,0.8-1H14
	c0.4,0,0.8,0.4,0.8,1v4l0.6,0.1c0.3,0,0.6,0.1,0.9,0.1c0-1.1,0.1-6.8,0.1-7C16.3,13.1,16,12.7,15.6,12.7z"/>
<path class="st0" d="M5.9,17.5h7.8c0.4,0,0.7,0.3,0.7,0.7v0.2c0,1.1-0.9,1.9-1.9,1.9H7.3c-1.1,0-2.1-0.9-2.1-2.1v0
	C5.2,17.8,5.5,17.5,5.9,17.5z"/>
<path class="st0" d="M24.8-1.3L24.8-1.3c-0.7,0-1.2,0.5-1.2,1.2V2H26v-2.1C26-0.7,25.4-1.3,24.8-1.3z"/>
</svg>
