<?xml version="1.0" encoding="utf-8"?>
<!-- Generator: Adobe Illustrator 22.1.0, SVG Export Plug-In . SVG Version: 6.00 Build 0)  -->
<svg version="1.1" id="Layer_1" xmlns="http://www.w3.org/2000/svg" xmlns:xlink="http://www.w3.org/1999/xlink" x="0px" y="0px"
	 viewBox="0 0 19.6 20.8" style="enable-background:new 0 0 19.6 20.8;" xml:space="preserve">
<style type="text/css">
	.st0{fill:#E4BD53;}
	.st1{fill:#9A9A9A;}
	.st2{fill:#E6E6E6;}
</style>
<path class="st0" d="M10.7,4.4C10.7,4.4,10.7,4.3,10.7,4.4C10.7,4.3,10.7,4.3,10.7,4.4L10,2.1c0.2-0.2,0.3-0.6-0.2-0.7
	C9.2,1.4,9.4,1.9,9.6,2L8.9,4.4"/>
<polygon class="st1" points="4.4,11.5 4.3,10 5.9,7.5 13.8,7.3 15.1,10 15.4,11.1 14.7,11.6 "/>
<polygon class="st1" points="3.6,19 5.6,18.8 7.4,18.7 12.7,18.7 14.3,18.8 15.8,18.9 16,13.3 13.6,12.8 8.4,12.8 4.1,13.1 
	3.7,14.8 "/>
<path class="st2" d="M15.7,12.7c-2.1-0.2-3.9-0.3-5.9-0.3S6.1,12.5,4,12.7c-0.4,0.1-0.7,0.4-0.7,0.6c0,0.2,0.1,4.7,0.1,5.8
	C3.6,19,3.9,19,4.2,19l0.1-5.3c0-0.3,0.3-0.5,0.7-0.5c0.3,0,0.6,0.2,0.6,0.4v5.2c0.5,0,1-0.1,1.6-0.1l-1-1.5c-0.2-0.2,0-0.5,0.3-0.5
	h1.1v-3.2c0-0.3,0.3-0.5,0.7-0.5S9,13.2,9,13.4l-0.1,3.2c0.2-0.1,0.4-0.2,0.4-0.2l0.3-0.8c0.1-0.1,0.4-0.2,0.5,0l0.3,0.8
	c0.1,0.1,0.4,0.2,0.5,0.2v-3.2c0-0.3,0.3-0.4,0.7-0.4c0.3,0,0.7,0.2,0.7,0.5v3.2h1.1c0.3,0,0.4,0.3,0.3,0.5l-1,1.5
	c0.6,0,1.1,0.1,1.6,0.1l0.1-5.2c0-0.3,0.3-0.4,0.6-0.4c0.4,0,0.7,0.2,0.7,0.5L15.6,19c0.3,0,0.6,0.1,0.9,0.1c0-0.9,0.1-5.6,0.1-5.8
	C16.4,13,16.1,12.7,15.7,12.7z"/>
<path class="st0" d="M10.1,14.7l0.4,1c0.1,0,0.6,0.3,0.7,0.3h3.1c0.4,0,0.6,0.4,0.3,0.7l-1.4,2c-0.1,0.1-0.3,0.1-0.4,0.1H6.7
	c-0.1,0-0.3-0.1-0.4-0.1l-1.4-2c-0.1-0.3,0-0.6,0.4-0.7h3c0.1,0,0.7-0.3,0.9-0.4l0.4-1C9.5,14.5,10,14.5,10.1,14.7z"/>
<path class="st2" d="M10.8,3.8H8.9l0,0l0,0v1c0.4,0,0.7,0,1,0s0.6,0,0.9,0.1L10.8,3.8L10.8,3.8z"/>
<path class="st2" d="M9.8,5c-3.6,0-6,4.1-6.1,7.3c1.1-0.2,6.9-0.9,12.1-0.1C15.8,9,13.4,5,9.8,5z M5.4,10.8
	c-0.1,0.3-0.4,0.5-0.6,0.4c-0.3-0.1-0.4-0.4-0.3-0.7s0.4-0.5,0.6-0.4C5.4,10.2,5.5,10.5,5.4,10.8z M6.4,8.4C6.3,8.6,6.1,8.7,5.9,8.7
	C5.7,8.6,5.6,8.4,5.7,8.1c0-0.2,0.3-0.3,0.5-0.3C6.4,7.9,6.5,8.1,6.4,8.4z M8.4,11.1c-0.4,0-0.7-0.3-0.7-0.7S8,9.7,8.4,9.7
	s0.7,0.3,0.7,0.7S8.8,11.1,8.4,11.1z M8.8,8.6c-0.3,0-0.5-0.2-0.5-0.5s0.2-0.5,0.5-0.5s0.5,0.2,0.5,0.5C9.3,8.4,9.1,8.6,8.8,8.6z
	 M11.1,7.6c0.3,0,0.5,0.2,0.5,0.5c0,0.3-0.2,0.5-0.5,0.5s-0.5-0.2-0.5-0.5S10.8,7.6,11.1,7.6z M11.4,11.1c-0.4,0-0.7-0.3-0.7-0.7
	s0.3-0.7,0.7-0.7s0.7,0.3,0.7,0.7S11.8,11.1,11.4,11.1z M13.8,8.7c-0.2,0.1-0.4-0.1-0.5-0.3s0-0.5,0.2-0.5C13.7,7.8,13.9,8,14,8.2
	C14.1,8.4,14,8.6,13.8,8.7z M14.8,11.2c-0.3,0.1-0.6-0.1-0.6-0.4s0.1-0.6,0.3-0.7c0.3-0.1,0.6,0.1,0.6,0.4S15,11.1,14.8,11.2z"/>
</svg>
