<?xml version="1.0" encoding="utf-8"?>
<!-- Generator: Adobe Illustrator 22.1.0, SVG Export Plug-In . SVG Version: 6.00 Build 0)  -->
<svg version="1.1" id="Layer_1" xmlns="http://www.w3.org/2000/svg" xmlns:xlink="http://www.w3.org/1999/xlink" x="0px" y="0px"
	 viewBox="0 0 19.6 20.8" style="enable-background:new 0 0 19.6 20.8;" xml:space="preserve">
<style type="text/css">
	.st0{fill:#E4BD53;}
	.st1{fill:#E6E6E6;}
	.st2{fill:#231F20;}
</style>
<path class="st0" d="M11.5,4.4C11.5,4.4,11.5,4.3,11.5,4.4C11.5,4.3,11.5,4.3,11.5,4.4l-1.3-3c0.4-0.3,0.6-0.8-0.4-0.9
	c-1.1,0-0.7,0.7-0.4,0.8L8.1,4.4"/>
<polygon class="st1" points="4.4,11.5 4.3,10 5.9,7.5 13.8,7.3 15.1,10 15.4,11.1 14.7,11.6 "/>
<path class="st1" d="M16.2,23.3c-2.1-0.2-3.9-0.3-5.9-0.3S6.6,23,4.5,23.3c-0.4,0.1-0.7,0.4-0.7,0.6c0,0.2,0.1,4.8,0.1,5.9
	c0.2-0.1,0.5-0.1,0.8-0.1l0.1-4.6c0-0.3,0.3-0.5,0.7-0.5c0.3,0,0.6,0.2,0.6,0.4v4.5c0.5,0,1-0.1,1.6-0.1l-1-1.5
	c-0.2-0.2,0-0.5,0.3-0.5h1.1v-2.5c0-0.3,0.3-0.5,0.7-0.5s0.7,0.2,0.7,0.4l-0.1,2.5C9.6,27.1,9.8,27,9.8,27l0.3-0.8
	c0.1-0.1,0.4-0.2,0.5,0l0.3,0.8c0.1,0.1,0.4,0.2,0.5,0.2v-2.5c0-0.3,0.3-0.4,0.7-0.4c0.3,0,0.7,0.2,0.7,0.5v2.5h1.1
	c0.3,0,0.4,0.3,0.3,0.5l-1,1.5c0.6,0,1.1,0.1,1.6,0.1l0.1-4.5c0-0.3,0.3-0.4,0.6-0.4c0.4,0,0.7,0.2,0.7,0.5l-0.1,4.6
	c0.3,0,0.6,0.1,0.9,0.1c0-0.9,0.1-5.7,0.1-5.9C16.9,23.6,16.6,23.3,16.2,23.3z"/>
<path class="st0" d="M10.6,25.2l0.4,1c0.1,0,0.6,0.3,0.7,0.3h3.1c0.4,0,0.6,0.4,0.3,0.7l-1.4,2c-0.1,0.1-0.3,0.1-0.4,0.1H7.2
	c-0.1,0-0.3-0.1-0.4-0.1l-1.4-2c-0.1-0.3,0-0.6,0.4-0.7h3c0.1,0,0.7-0.3,0.9-0.4l0.4-1C10,25,10.5,25,10.6,25.2z"/>
<path class="st1" d="M9.8,5c-3.6,0-6,4.1-6.1,7.3c1.1-0.2,6.9-0.9,12.1-0.1C15.8,9,13.4,5,9.8,5z M5.4,10.8
	c-0.1,0.3-0.4,0.5-0.6,0.4c-0.3-0.1-0.4-0.4-0.3-0.7s0.4-0.5,0.6-0.4C5.4,10.2,5.5,10.5,5.4,10.8z M6.4,8.4C6.3,8.6,6.1,8.7,5.9,8.7
	C5.7,8.6,5.6,8.4,5.7,8.1c0-0.2,0.3-0.3,0.5-0.3C6.4,7.9,6.5,8.1,6.4,8.4z M8.4,11.1c-0.4,0-0.7-0.3-0.7-0.7S8,9.7,8.4,9.7
	s0.7,0.3,0.7,0.7S8.8,11.1,8.4,11.1z M8.8,8.6c-0.3,0-0.5-0.2-0.5-0.5s0.2-0.5,0.5-0.5s0.5,0.2,0.5,0.5C9.3,8.4,9.1,8.6,8.8,8.6z
	 M11.1,7.6c0.3,0,0.5,0.2,0.5,0.5c0,0.3-0.2,0.5-0.5,0.5s-0.5-0.2-0.5-0.5S10.8,7.6,11.1,7.6z M11.4,11.1c-0.4,0-0.7-0.3-0.7-0.7
	s0.3-0.7,0.7-0.7s0.7,0.3,0.7,0.7S11.8,11.1,11.4,11.1z M13.8,8.7c-0.2,0.1-0.4-0.1-0.5-0.3s0-0.5,0.2-0.5C13.7,7.8,13.9,8,14,8.2
	S14,8.6,13.8,8.7z M14.8,11.2c-0.3,0.1-0.6-0.1-0.6-0.4s0.1-0.6,0.3-0.7c0.3-0.1,0.6,0.1,0.6,0.4S15,11.1,14.8,11.2z"/>
<path class="st1" d="M15.6,13c-2.1-0.2-3.9-0.3-5.9-0.3S6,12.8,3.9,13c-0.4,0.1-0.7,0.4-0.7,0.6c0,0.2,0.1,4.8,0.1,5.9
	c0.1,0,0.7-0.1,1.3-0.2v-3.3c0-0.4,0.4-0.8,0.8-0.8h0.3c0.4,0,0.8,0.4,0.8,0.8v3.2c0.2,0,0.4,0,0.5,0h1.6v-3.1
	c0-0.4,0.4-0.8,0.8-0.8h0.3c0.4,0,0.8,0.4,0.8,0.8v3.1h1.9c0.1,0,0.2,0,0.3,0v-3.2c0-0.4,0.4-0.8,0.8-0.8H14c0.4,0,0.8,0.4,0.8,0.8
	v3.3l0.6,0.1c0.3,0,0.6,0.1,0.9,0.1c0-0.9,0.1-5.7,0.1-5.9C16.3,13.3,16,13,15.6,13z"/>
<path class="st2" d="M24.3,10.5H24c-0.4,0-0.8-0.4-0.8-0.8V6.1c0-0.4,0.4-0.8,0.8-0.8h0.3c0.4,0,0.8,0.4,0.8,0.8v3.6
	C25.1,10.1,24.8,10.5,24.3,10.5z"/>
<path class="st2" d="M28.4,10.5h-0.3c-0.4,0-0.8-0.4-0.8-0.8V6.1c0-0.4,0.4-0.8,0.8-0.8h0.3c0.4,0,0.8,0.4,0.8,0.8v3.6
	C29.2,10.1,28.9,10.5,28.4,10.5z"/>
<path class="st2" d="M32.6,10.5h-0.3c-0.4,0-0.8-0.4-0.8-0.8V6.1c0-0.4,0.4-0.8,0.8-0.8h0.3c0.4,0,0.8,0.4,0.8,0.8v3.6
	C33.4,10.1,33,10.5,32.6,10.5z"/>
<rect x="1.9" y="23.5" class="st1" width="16.3" height="2.8"/>
</svg>
