<?xml version="1.0" encoding="utf-8"?>
<!-- Generator: Adobe Illustrator 22.1.0, SVG Export Plug-In . SVG Version: 6.00 Build 0)  -->
<svg version="1.1" id="Layer_1" xmlns="http://www.w3.org/2000/svg" xmlns:xlink="http://www.w3.org/1999/xlink" x="0px" y="0px"
	 viewBox="0 0 19.6 20.8" style="enable-background:new 0 0 19.6 20.8;" xml:space="preserve">
<style type="text/css">
	.st0{fill:#E4BD53;}
	.st1{fill:#E6E6E6;}
	.st2{display:none;fill:#E4BD53;}
</style>
<path class="st0" d="M11.6,4.4C11.6,4.4,11.6,4.3,11.6,4.4C11.6,4.3,11.6,4.3,11.6,4.4l-1.3-2.5c-0.1-0.3-0.1-0.5,0.1-0.8
	c0.1-0.3,0-0.5-0.8-0.6C8.9,0.5,8.8,0.8,8.9,1c0.1,0.3,0.2,0.7,0,1L7.7,4.4"/>
<path class="st1" d="M37,12c-2.1-0.2-3.9-0.3-5.9-0.3s-3.7,0.1-5.8,0.3c-0.4,0.1-0.7,0.4-0.7,0.6c0,0.2,0.1,4.8,0.1,5.9
	c0.2-0.1,0.5-0.1,0.8-0.1l0.1-4.6c0-0.3,0.3-0.5,0.7-0.5c0.3,0,0.6,0.2,0.6,0.4v4.5c0.5,0,1-0.1,1.6-0.1l-1-1.5
	c-0.2-0.2,0-0.5,0.3-0.5h1.1v-2.5c0-0.3,0.3-0.5,0.7-0.5c0.4,0,0.7,0.1,0.7,0.3l-0.1,2.5c0.2-0.1,0.4-0.2,0.4-0.2l0.3-0.8
	c0.1-0.1,0.4-0.2,0.5,0l0.3,0.8c0.1,0.1,0.4,0.2,0.5,0.2v-2.5c0-0.3,0.3-0.4,0.7-0.4c0.3,0,0.7,0.2,0.7,0.5V16h1.1
	c0.3,0,0.4,0.3,0.3,0.5L34,18c0.6,0,1.1,0.1,1.6,0.1l0.1-4.5c0-0.3,0.3-0.4,0.6-0.4c0.4,0,0.7,0.2,0.7,0.5l-0.1,4.6
	c0.3,0,0.6,0.1,0.9,0.1c0-0.9,0.1-5.7,0.1-5.9C37.7,12.3,37.4,12,37,12z"/>
<path class="st0" d="M31.8,21.6l0.4,1c0.1,0,0.6,0.3,0.7,0.3H36c0.4,0,0.6,0.4,0.3,0.7l-1.4,2c-0.1,0.1-0.3,0.1-0.4,0.1h-6.1
	c-0.1,0-0.3-0.1-0.4-0.1l-1.4-2c-0.1-0.3,0-0.6,0.4-0.7h3c0.1,0,0.7-0.3,0.9-0.4l0.4-1C31.2,21.4,31.7,21.4,31.8,21.6z"/>
<path class="st1" d="M16.3,12.9c-2.4-0.2-4.4-0.4-6.7-0.4S5.4,12.7,3,12.9c-0.4,0.1-0.8,0.5-0.8,0.7s0.1,5.5,0.1,6.8
	c0.1-0.1,0.8-0.1,1.5-0.2v-3.9c0-0.5,0.4-1,0.9-1H5c0.4,0,0.9,0.4,0.9,1v0.9c0.2,0,2.3,0,2.3,0v-1.5c0-0.4,0.4-0.8,0.9-0.8h0.3
	c0.4,0,0.9,0.4,0.9,0.8v0.4c0,0.1,0,0.2,0,0.3v0.8c0,0,2.4,0,2.5,0v-0.9c0-0.5,0.4-1,0.9-1h0.5c0.4,0,0.9,0.4,0.9,1v3.9l0.7,0.1
	c0.3,0,0.7,0.1,1,0.1c0-1.1,0.1-6.6,0.1-6.8C17.1,13.3,16.7,12.9,16.3,12.9z"/>
<path class="st0" d="M5.1,17.8h8.9c0.5,0,0.8,0.3,0.8,0.7v0.2c0,1.1-1,1.9-2.2,1.9H6.7c-1.3,0-2.4-0.9-2.4-2.1l0,0
	C4.3,18.1,4.6,17.8,5.1,17.8z"/>
<path class="st2" d="M5.3,17.8h8.5c0.4,0,0.8,0.3,0.8,0.7v0.2c0,1.1-1,1.9-2.1,1.9H6.8c-1.2,0-2.3-0.9-2.3-2.1l0,0
	C4.5,18.1,4.8,17.8,5.3,17.8z"/>
<path class="st0" d="M24.8-1.3L24.8-1.3c-0.7,0-1.2,0.5-1.2,1.2V2H26v-2.1C26-0.7,25.4-1.3,24.8-1.3z"/>
<path class="st1" d="M14.4,7l-0.2-0.2h-0.1C13,5.7,11.5,5,9.7,5C5.6,5,3,8.8,2.9,11.8c1.3-0.2,7.7-0.8,13.7,0
	C16.5,10.2,15.8,8.4,14.4,7z M7,10.2l-1-0.1c0.2-1.4,0.9-3,1.5-3.6l0.8,0.6C7.8,7.6,7.2,8.8,7,10.2z M12.2,10.2
	c-0.2-1.3-0.9-2.5-1.3-3l0.6-0.5l0,0l0,0l0.1-0.1c0.5,0.6,1.4,2.2,1.6,3.5L12.2,10.2z"/>
</svg>
