<?xml version="1.0" encoding="utf-8"?>
<!-- Generator: Adobe Illustrator 22.1.0, SVG Export Plug-In . SVG Version: 6.00 Build 0)  -->
<svg version="1.1" id="Layer_1" xmlns="http://www.w3.org/2000/svg" xmlns:xlink="http://www.w3.org/1999/xlink" x="0px" y="0px"
	 viewBox="0 0 19.6 20.8" style="enable-background:new 0 0 19.6 20.8;" xml:space="preserve">
<style type="text/css">
	.st0{fill:#E4BD53;}
	.st1{fill:#E6E6E6;}
</style>
<path class="st0" d="M11.5,4.4C11.5,4.4,11.5,4.3,11.5,4.4C11.5,4.3,11.5,4.3,11.5,4.4l-1.2-2.5c-0.1-0.3-0.1-0.5,0.1-0.8
	c0.1-0.3,0-0.5-0.8-0.6C8.9,0.5,8.8,0.8,8.9,1c0.1,0.3,0.2,0.7,0,1L7.8,4.4"/>
<path class="st1" d="M37,12c-2.1-0.2-3.9-0.3-5.9-0.3s-3.7,0.1-5.8,0.3c-0.4,0.1-0.7,0.4-0.7,0.6c0,0.2,0.1,4.8,0.1,5.9
	c0.2-0.1,0.5-0.1,0.8-0.1l0.1-4.6c0-0.3,0.3-0.5,0.7-0.5c0.3,0,0.6,0.2,0.6,0.4v4.5c0.5,0,1-0.1,1.6-0.1l-1-1.5
	c-0.2-0.2,0-0.5,0.3-0.5h1.1v-2.5c0-0.3,0.3-0.5,0.7-0.5c0.4,0,0.7,0.1,0.7,0.3l-0.1,2.5c0.2-0.1,0.4-0.2,0.4-0.2l0.3-0.8
	c0.1-0.1,0.4-0.2,0.5,0l0.3,0.8c0.1,0.1,0.4,0.2,0.5,0.2v-2.5c0-0.3,0.3-0.4,0.7-0.4c0.3,0,0.7,0.2,0.7,0.5V16h1.1
	c0.3,0,0.4,0.3,0.3,0.5L34,18c0.6,0,1.1,0.1,1.6,0.1l0.1-4.5c0-0.3,0.3-0.4,0.6-0.4c0.4,0,0.7,0.2,0.7,0.5l-0.1,4.6
	c0.3,0,0.6,0.1,0.9,0.1c0-0.9,0.1-5.7,0.1-5.9C37.7,12.3,37.4,12,37,12z"/>
<path class="st0" d="M31.8,21.6l0.4,1c0.1,0,0.6,0.3,0.7,0.3H36c0.4,0,0.6,0.4,0.3,0.7l-1.4,2c-0.1,0.1-0.3,0.1-0.4,0.1h-6.1
	c-0.1,0-0.3-0.1-0.4-0.1l-1.4-2c-0.1-0.3,0-0.6,0.4-0.7h3c0.1,0,0.7-0.3,0.9-0.4l0.4-1C31.2,21.4,31.7,21.4,31.8,21.6z"/>
<path class="st1" d="M16,12.9c-2.3-0.2-4.2-0.4-6.4-0.4s-4,0.2-6.3,0.4c-0.4,0.1-0.8,0.5-0.8,0.7c0,0.2,0.1,5.5,0.1,6.8
	c0.1-0.1,0.8-0.1,1.4-0.2v-3.9c0-0.5,0.4-1,0.9-1h0.3c0.4,0,0.9,0.4,0.9,1v0.8c0.2,0,2.3,0,2.3,0v-1.4c0-0.4,0.4-0.8,0.9-0.8h0.3
	c0.4,0,0.9,0.4,0.9,0.8v0.4c0,0.1,0,0.2,0,0.3v0.7h2.1c0.1,0,0.2,0,0.3,0v-0.8c0-0.5,0.4-1,0.9-1h0.5c0.4,0,0.9,0.4,0.9,1v3.9
	l0.7,0.1c0.3,0,0.7,0.1,1,0.1c0-1.1,0.1-6.6,0.1-6.8C16.8,13.3,16.4,12.9,16,12.9z"/>
<path class="st0" d="M5.3,17.8h8.5c0.4,0,0.8,0.3,0.8,0.7v0.2c0,1.1-1,1.9-2.1,1.9H6.8c-1.2,0-2.3-0.9-2.3-2.1l0,0
	C4.5,18.1,4.8,17.8,5.3,17.8z"/>
<path class="st0" d="M24.8-1.3L24.8-1.3c-0.7,0-1.2,0.5-1.2,1.2V2H26v-2.1C26-0.7,25.4-1.3,24.8-1.3z"/>
<path class="st1" d="M14.2,7L14,6.8l-0.1,0C12.8,5.7,11.4,5,9.7,5c-3.9,0-6.4,3.8-6.5,6.8c1.2-0.2,7.4-0.8,13.1,0
	C16.2,10.2,15.5,8.4,14.2,7z M7.3,9.8c-0.6,0-1-0.5-1-1s0.5-1,1-1s1,0.5,1,1S7.8,9.8,7.3,9.8z M11.9,9.8c-0.6,0-1-0.5-1-1s0.5-1,1-1
	s1,0.5,1,1S12.4,9.8,11.9,9.8z"/>
</svg>
